# xmcd
#
# Track frame offsets:
#	150
#	19930
#	37397
#	54739
#	71152
#	88658
#	106030
#	122983
#	140223
#	156686
#	169921
#	187502
#	200822
#	219468
#	239565
#	257891
#	272346
#	287391
#	303285
#	321618
#
# Disc length: 4518 seconds
#
# Revision: 1
# Processed by: cddbd v1.5.2PL0 Copyright (c) Steve Scherf et al.
# Submitted via: audiograbber 1.83.01
#
DISCID=3e11a414
DTITLE=div - Café Puls Italo Hits '17-2
DYEAR=2017
DGENRE=Pop
TTITLE0=Toto Cutugno - Insieme: 1992
TTITLE1=Tozzi and Raf - Gente Di Mare
TTITLE2=Martinelli - Cenerentola (Cinderella) (Vocal Radio Mix)
TTITLE3=Tony Esposito - Kalimba De Luna
TTITLE4=Raf - Self Control
TTITLE5=Den Harrow - Don't Break My Heart
TTITLE6=Radiorama - Chance To Desire (Radio Version)
TTITLE7=Sabrina - Boys (Summertime Love)
TTITLE8=Baltimora - Tarzan Boy
TTITLE9=Taffy - I Love My Radio
TTITLE10=Laserdance - Power Run (Short Space Mix)
TTITLE11=Gigi D´agostino - La Passion (New Radio Cut)
TTITLE12=Matia Bazar - Ti Sento
TTITLE13=Ivan - Fotonovela (Chapter 1)
TTITLE14=Ken Laszlo - Tonight
TTITLE15=Spagna - Call Me
TTITLE16=Raggio Di Luna (Moon Ray) - Comanchero
TTITLE17=Valeria Dore - Get Closer
TTITLE18=Gazebo - I Like Chopin (Single Edit)
TTITLE19=I Santo California - Tornerò
EXTD=
EXTT0=
EXTT1=
EXTT2=
EXTT3=
EXTT4=
EXTT5=
EXTT6=
EXTT7=
EXTT8=
EXTT9=
EXTT10=
EXTT11=
EXTT12=
EXTT13=
EXTT14=
EXTT15=
EXTT16=
EXTT17=
EXTT18=
EXTT19=
PLAYORDER=
